<?xml version="1.0" standalone="no"?>
<!DOCTYPE svg PUBLIC "-//W3C//DTD SVG 20010904//EN"
 "http://www.w3.org/TR/2001/REC-SVG-20010904/DTD/svg10.dtd">
<svg version="1.0" xmlns="http://www.w3.org/2000/svg"
 width="625.000000pt" height="216.000000pt" viewBox="0 0 625.000000 216.000000"
 preserveAspectRatio="xMidYMid meet">

<g transform="translate(0.000000,216.000000) scale(0.100000,-0.100000)"
fill="#000000" stroke="none">
<path d="M0 1080 l0 -1080 3125 0 3125 0 0 1080 0 1080 -3125 0 -3125 0 0
-1080z m1193 380 c119 -45 188 -181 153 -302 -22 -77 -67 -132 -134 -165 -49
-24 -71 -28 -178 -33 -188 -8 -194 -18 -194 -317 l0 -193 -255 0 -255 0 0 280
c0 154 1 280 3 280 1 0 26 -9 55 -20 35 -13 76 -20 126 -20 64 0 82 4 144 36
105 52 158 123 188 251 17 78 48 130 99 168 74 57 158 69 248 35z m3427 -565
l0 -445 -65 0 -65 0 0 36 0 35 -35 -27 c-51 -38 -100 -53 -181 -54 -128 0
-230 70 -275 190 -31 81 -24 218 13 280 60 102 148 153 263 154 83 1 134 -15
181 -56 l34 -30 0 181 0 181 65 0 65 0 0 -445z m-2245 387 c121 -56 177 -171
145 -301 -14 -58 -80 -140 -130 -161 -16 -7 -30 -14 -30 -17 0 -2 45 -81 100
-174 55 -94 100 -173 100 -175 0 -3 -34 -4 -76 -2 l-76 3 -93 160 -93 160
-111 3 -111 3 0 -166 0 -165 -65 0 -65 0 0 431 0 431 228 -4 c212 -3 230 -5
277 -26z m662 -248 c92 -45 153 -148 153 -259 l0 -55 -236 0 -236 0 6 -31 c15
-77 88 -129 180 -129 70 0 102 12 148 57 l37 36 41 -28 c22 -16 43 -31 45 -35
10 -16 -70 -91 -128 -120 -101 -50 -222 -43 -318 19 -152 96 -186 323 -71 469
33 41 116 92 172 103 59 13 151 1 207 -27z m652 25 c64 -13 124 -57 153 -111
22 -41 23 -56 26 -270 l3 -228 -60 0 -59 0 -4 198 c-3 222 -11 250 -78 285
-44 23 -132 17 -169 -11 -64 -47 -66 -56 -69 -273 l-4 -199 -59 0 -59 0 0 305
0 305 60 0 60 0 0 -35 c0 -19 2 -35 5 -35 3 0 18 11 33 25 28 27 98 53 144 54
15 1 50 -4 77 -10z m1477 -20 c93 -44 154 -142 157 -252 l2 -62 -232 -3 -233
-2 0 -24 c0 -28 36 -82 73 -110 20 -14 47 -21 96 -24 78 -5 135 18 172 68 l22
29 41 -31 c23 -18 43 -33 45 -35 2 -1 -6 -17 -19 -35 -84 -123 -285 -158 -420
-73 -91 57 -142 153 -143 269 -3 151 96 277 243 307 52 11 149 0 196 -22z
m613 25 c28 -6 31 -10 31 -43 0 -73 -5 -78 -68 -74 -70 5 -118 -17 -147 -67
-18 -31 -20 -56 -23 -232 l-4 -198 -59 0 -59 0 0 305 0 305 60 0 60 0 0 -42 0
-42 28 32 c40 49 110 70 181 56z"/>
<path d="M4197 929 c-105 -55 -128 -220 -44 -316 56 -64 142 -81 222 -44 147
66 154 291 13 360 -57 27 -139 27 -191 0z"/>
<path d="M2008 1184 c-5 -4 -8 -67 -8 -141 l0 -133 148 0 c128 0 151 3 179 20
84 51 84 185 0 235 -27 17 -55 21 -172 23 -77 2 -143 0 -147 -4z"/>
<path d="M2830 943 c-35 -13 -72 -47 -90 -83 -11 -22 -20 -42 -20 -45 0 -3 77
-5 170 -5 155 0 170 2 170 18 0 28 -37 81 -72 102 -32 19 -121 27 -158 13z"/>
<path d="M4939 927 c-35 -24 -79 -81 -79 -103 0 -11 34 -14 170 -14 111 0 170
4 170 10 0 27 -43 90 -73 109 -49 30 -142 29 -188 -2z"/>
</g>
</svg>
