<?xml version="1.0" standalone="no"?>
<!DOCTYPE svg PUBLIC "-//W3C//DTD SVG 20010904//EN"
 "http://www.w3.org/TR/2001/REC-SVG-20010904/DTD/svg10.dtd">
<svg version="1.0" xmlns="http://www.w3.org/2000/svg"
 width="176.000000pt" height="62.000000pt" viewBox="0 0 176.000000 62.000000"
 preserveAspectRatio="xMidYMid meet">

<g transform="translate(0.000000,62.000000) scale(0.100000,-0.100000)"
fill="#000000" stroke="none">
<path d="M0 310 l0 -310 880 0 880 0 0 310 0 310 -880 0 -880 0 0 -310z m379
64 c26 -33 26 -45 1 -77 -15 -19 -32 -27 -63 -29 l-42 -3 -3 -62 -3 -63 -64 0
-65 0 0 69 0 70 35 -6 c29 -5 39 -1 65 25 16 17 30 40 30 51 0 24 35 51 66 51
13 0 32 -12 43 -26z m831 -119 c0 -96 -3 -115 -15 -115 -8 0 -15 5 -15 12 0 9
-3 9 -12 0 -20 -20 -67 -14 -93 13 -61 60 0 155 79 125 25 -9 26 -8 26 29 0
37 6 51 22 51 4 0 8 -52 8 -115z m-546 84 c31 -24 33 -57 7 -91 -20 -24 -20
-25 0 -57 23 -37 24 -51 5 -51 -8 0 -26 20 -40 45 -20 34 -33 45 -51 45 -23 0
-25 -4 -25 -45 0 -33 -4 -45 -15 -45 -12 0 -15 19 -15 110 l0 110 54 0 c39 0
60 -6 80 -21z m150 -50 c20 -9 46 -52 46 -75 0 -2 -27 -4 -60 -4 -60 0 -70 -6
-48 -28 15 -15 51 -15 66 0 9 9 15 9 23 1 8 -8 4 -15 -12 -27 -46 -32 -100
-16 -118 34 -12 37 -1 72 31 94 27 19 39 20 72 5z m193 -12 c23 -23 26 -132 3
-132 -11 0 -16 14 -18 57 -2 47 -7 58 -23 63 -31 10 -48 -12 -51 -68 -2 -38
-7 -52 -18 -52 -11 0 -16 15 -18 64 -2 35 -1 69 2 76 7 19 102 13 123 -8z
m366 -9 c9 -11 17 -29 17 -39 0 -15 -10 -19 -62 -21 -60 -3 -61 -4 -43 -21 17
-18 39 -19 78 -2 24 10 23 -21 -2 -35 -52 -27 -121 8 -121 61 0 17 5 39 11 50
22 42 89 46 122 7z m77 22 c0 -7 6 -7 19 0 26 14 41 13 41 -3 0 -7 -13 -18
-30 -24 -28 -11 -30 -14 -30 -67 0 -43 -3 -56 -15 -56 -12 0 -15 16 -15 80 0
64 3 80 15 80 8 0 15 -5 15 -10z"/>
<path d="M1097 252 c-21 -23 -22 -46 -1 -66 30 -31 84 -9 84 34 0 24 -26 50
-49 50 -10 0 -25 -8 -34 -18z"/>
<path d="M560 294 l0 -35 43 3 c36 3 43 7 45 27 4 29 -12 41 -55 41 -31 0 -33
-2 -33 -36z"/>
<path d="M752 258 c-21 -21 -13 -28 28 -28 22 0 40 4 40 8 0 14 -23 32 -40 32
-9 0 -21 -5 -28 -12z"/>
<path d="M1286 255 c-23 -23 -21 -25 25 -25 33 0 40 3 37 18 -4 23 -41 27 -62
7z"/>
</g>
</svg>
